<?xml version="1.0" standalone="no"?>
<!DOCTYPE svg PUBLIC "-//W3C//DTD SVG 20010904//EN"
 "http://www.w3.org/TR/2001/REC-SVG-20010904/DTD/svg10.dtd">
<svg version="1.0" xmlns="http://www.w3.org/2000/svg"
 width="456.000000pt" height="457.000000pt" viewBox="0 0 456.000000 457.000000"
 preserveAspectRatio="xMidYMid meet">

<g transform="translate(0.000000,457.000000) scale(0.100000,-0.100000)"
fill="#000000" stroke="none">
<path d="M1464 4517 c-2 -7 -5 -246 -7 -532 l-2 -520 -275 -6 c-282 -6 -277
-5 -443 -54 -64 -19 -199 -92 -247 -132 -21 -18 -41 -33 -45 -33 -8 0 -107
-104 -154 -161 -79 -97 -160 -276 -187 -416 -18 -96 -18 -267 0 -363 34 -176
126 -356 245 -483 l64 -68 -34 -37 c-54 -57 -129 -149 -129 -158 0 -4 -14 -29
-31 -55 -36 -57 -73 -152 -105 -269 -42 -156 -29 -395 31 -544 14 -34 25 -67
25 -72 0 -27 107 -186 175 -261 134 -146 283 -237 471 -289 l99 -27 1092 -2
1093 -2 5 31 c4 17 4 252 2 521 -2 270 -2 496 0 503 4 9 62 12 248 12 169 0
266 4 317 14 438 85 763 455 795 905 12 171 -41 394 -129 544 -48 83 -69 110
-144 189 l-55 57 52 55 c121 131 199 269 246 441 24 89 27 116 26 250 0 132
-4 161 -27 240 -106 361 -358 608 -717 702 l-104 27 -1073 2 c-825 2 -1074 0
-1078 -9z m2116 -491 c108 -24 176 -60 251 -135 151 -151 191 -360 103 -547
-37 -80 -103 -165 -152 -196 -84 -54 -141 -77 -210 -84 l-72 -7 0 -243 0 -244
23 -4 c12 -3 41 -7 65 -11 78 -10 171 -63 248 -139 58 -58 76 -85 103 -150 58
-141 54 -271 -14 -411 -54 -112 -145 -192 -280 -246 l-60 -24 -809 -3 c-600
-2 -812 0 -822 9 -11 9 -14 66 -14 304 l0 293 -237 -1 -238 -2 -3 -542 -2
-543 572 -2 573 -3 3 -282 2 -283 -812 0 c-869 0 -842 -1 -952 50 -111 53
-221 194 -252 325 -63 268 124 546 397 588 l69 11 0 243 0 243 -24 0 c-34 0
-164 44 -218 75 -100 56 -188 180 -222 311 -64 247 101 516 355 578 57 14 163
16 862 16 l797 0 2 -462 3 -463 242 0 c153 0 244 4 246 10 2 6 2 323 0 705
l-5 695 -566 5 c-312 3 -573 9 -580 13 -10 7 -12 69 -12 273 1 146 4 272 7
280 8 21 1535 21 1633 0z"/>
</g>
</svg>
