<?xml version="1.0" standalone="no"?>
<!DOCTYPE svg PUBLIC "-//W3C//DTD SVG 20010904//EN"
 "http://www.w3.org/TR/2001/REC-SVG-20010904/DTD/svg10.dtd">
<svg version="1.0" xmlns="http://www.w3.org/2000/svg"
 width="513.000000pt" height="491.000000pt" viewBox="0 0 513.000000 491.000000"
 preserveAspectRatio="xMidYMid meet">

<g transform="translate(0.000000,491.000000) scale(0.100000,-0.100000)"
fill="#000000" stroke="none">
<path d="M2300 4740 c-14 -4 -47 -8 -73 -9 -44 -1 -136 -19 -212 -41 -16 -4
-67 -16 -112 -26 -46 -10 -83 -22 -83 -26 0 -4 -10 -8 -23 -8 -13 0 -32 -7
-43 -15 -10 -8 -27 -15 -37 -15 -9 0 -25 -4 -35 -10 -9 -5 -35 -16 -57 -26
-56 -23 -109 -48 -115 -54 -3 -3 -36 -21 -75 -40 -38 -19 -71 -38 -73 -42 -2
-5 -10 -8 -18 -8 -8 0 -14 -4 -14 -10 0 -5 -9 -10 -20 -10 -11 0 -20 -5 -20
-10 0 -6 -10 -14 -22 -19 -20 -8 -145 -95 -158 -110 -3 -3 -25 -22 -50 -41
-25 -19 -46 -38 -48 -42 -2 -4 -7 -8 -12 -8 -9 0 -242 -230 -270 -266 -8 -11
-26 -33 -40 -50 -14 -17 -36 -45 -50 -64 -14 -18 -32 -40 -41 -49 -15 -16 -99
-146 -99 -155 0 -2 -22 -40 -48 -83 -27 -43 -58 -103 -71 -133 -13 -30 -32
-75 -43 -100 -31 -67 -34 -76 -71 -190 -31 -95 -43 -136 -78 -290 -21 -87 -31
-217 -36 -430 -5 -205 0 -277 28 -450 6 -36 13 -78 16 -95 2 -16 8 -39 13 -50
5 -11 11 -33 13 -50 9 -56 32 -135 39 -135 5 0 8 -9 8 -20 0 -26 31 -109 81
-213 10 -21 21 -51 24 -67 4 -17 11 -30 16 -30 5 0 9 -7 9 -15 0 -8 15 -38 33
-67 18 -29 46 -79 62 -112 16 -32 47 -77 67 -100 21 -22 38 -46 38 -51 0 -6
11 -22 25 -37 14 -15 25 -31 25 -35 0 -5 14 -19 31 -33 17 -14 36 -29 43 -35
6 -5 23 -19 36 -30 l24 -20 -15 25 c-9 14 -46 70 -82 125 -441 675 -497 1498
-150 2235 64 135 143 262 254 405 384 492 943 802 1564 866 146 14 440 7 575
-16 324 -53 637 -175 900 -350 148 -99 230 -166 358 -295 321 -322 530 -716
616 -1157 102 -524 22 -1058 -227 -1515 -141 -259 -308 -463 -553 -676 -27
-24 -42 -40 -34 -36 25 12 130 95 130 102 0 4 20 20 45 37 24 16 41 33 38 38
-3 4 4 11 16 14 11 3 18 9 15 14 -3 5 0 9 5 9 16 0 51 32 45 42 -3 4 2 8 11 8
9 0 14 4 11 9 -4 5 10 19 29 31 19 12 38 32 41 45 3 14 9 23 13 22 9 -3 66 56
88 91 10 15 26 33 36 41 11 7 25 29 33 47 8 19 18 34 23 34 6 0 12 8 15 18 4
10 14 27 24 38 43 47 141 222 216 384 71 155 147 427 178 635 17 119 17 540 0
660 -27 187 -82 406 -132 530 -7 17 -16 39 -20 50 -54 138 -206 422 -232 433
-4 2 -8 10 -8 18 0 8 -4 14 -9 14 -5 0 -12 9 -16 20 -3 10 -25 39 -48 63 -23
24 -50 59 -60 78 -17 32 -224 253 -277 294 -14 11 -53 44 -87 73 -33 28 -68
52 -78 52 -9 0 -31 16 -48 35 -32 36 -121 95 -239 158 -37 20 -75 41 -85 46
-16 9 -54 26 -168 76 -63 27 -116 45 -135 45 -11 0 -20 3 -20 8 0 4 -37 16
-82 26 -46 10 -92 22 -103 26 -30 12 -121 31 -200 42 -88 13 -621 19 -655 8z"/>
<path d="M2300 4240 c-74 -10 -155 -23 -180 -29 -759 -175 -1342 -712 -1578
-1451 -70 -221 -96 -415 -89 -685 8 -335 66 -586 200 -865 118 -243 308 -503
468 -639 35 -30 71 -61 79 -70 26 -28 177 -139 241 -176 194 -113 448 -123
656 -24 82 39 197 131 250 200 l41 54 -14 330 c-7 182 -18 413 -24 515 -5 102
-10 224 -10 270 0 47 -4 90 -8 96 -5 9 -25 9 -77 -1 -38 -7 -151 -27 -250 -45
-99 -18 -191 -39 -204 -47 -14 -9 -21 -10 -16 -3 6 9 0 10 -22 6 -16 -4 -123
-24 -238 -45 -116 -21 -351 -65 -523 -96 -172 -32 -315 -55 -318 -53 -2 3 28
66 68 139 85 156 64 140 338 247 l175 69 7 52 c12 82 49 165 75 169 25 4 38
-16 64 -98 10 -32 23 -54 30 -52 6 2 95 36 197 76 l185 73 24 82 c32 114 48
141 79 141 25 0 31 -9 80 -127 9 -21 11 -21 154 37 l145 58 1 188 c0 256 34
414 126 599 81 160 113 194 172 179 59 -14 199 -313 226 -481 6 -38 14 -75 18
-83 3 -8 6 -102 6 -209 l1 -194 145 -58 c143 -56 145 -57 154 -35 50 119 55
126 80 126 31 0 47 -27 79 -141 l24 -82 194 -77 c107 -43 197 -75 200 -71 3 3
14 34 24 69 20 69 35 87 64 77 23 -7 58 -91 69 -167 l7 -51 130 -52 c72 -29
163 -64 203 -80 41 -15 84 -37 97 -49 36 -31 160 -276 141 -276 -8 0 -77 12
-153 26 -232 43 -836 155 -873 161 l-35 6 20 -24 c18 -22 17 -22 -10 2 -25 22
-55 31 -180 54 -333 61 -400 72 -405 64 -3 -5 -12 -140 -19 -301 -7 -161 -18
-432 -26 -603 l-13 -310 39 -51 c65 -85 137 -143 245 -197 104 -53 181 -70
314 -71 212 0 335 53 570 248 432 359 695 847 761 1409 19 161 7 464 -25 630
-82 428 -279 800 -586 1107 -475 476 -1130 699 -1790 610z m-725 -740 c10 -11
16 -20 13 -20 -3 0 -13 9 -23 20 -10 11 -16 20 -13 20 3 0 13 -9 23 -20z m80
-80 c10 -11 16 -20 13 -20 -3 0 -13 9 -23 20 -10 11 -16 20 -13 20 3 0 13 -9
23 -20z m1905 16 c0 -2 -8 -10 -17 -17 -16 -13 -17 -12 -4 4 13 16 21 21 21
13z m-1825 -96 c10 -11 16 -20 13 -20 -3 0 -13 9 -23 20 -10 11 -16 20 -13 20
3 0 13 -9 23 -20z m1745 16 c0 -2 -8 -10 -17 -17 -16 -13 -17 -12 -4 4 13 16
21 21 21 13z m-1665 -96 c10 -11 16 -20 13 -20 -3 0 -13 9 -23 20 -10 11 -16
20 -13 20 3 0 13 -9 23 -20z m1585 16 c0 -2 -8 -10 -17 -17 -16 -13 -17 -12
-4 4 13 16 21 21 21 13z m-1505 -96 c10 -11 16 -20 13 -20 -3 0 -13 9 -23 20
-10 11 -16 20 -13 20 3 0 13 -9 23 -20z m1425 16 c0 -2 -8 -10 -17 -17 -16
-13 -17 -12 -4 4 13 16 21 21 21 13z m-1345 -96 c10 -11 16 -20 13 -20 -3 0
-13 9 -23 20 -10 11 -16 20 -13 20 3 0 13 -9 23 -20z m1265 16 c0 -2 -8 -10
-17 -17 -16 -13 -17 -12 -4 4 13 16 21 21 21 13z m-1185 -96 c10 -11 16 -20
13 -20 -3 0 -13 9 -23 20 -10 11 -16 20 -13 20 3 0 13 -9 23 -20z m1105 16 c0
-2 -8 -10 -17 -17 -16 -13 -17 -12 -4 4 13 16 21 21 21 13z m-1025 -96 c10
-11 16 -20 13 -20 -3 0 -13 9 -23 20 -10 11 -16 20 -13 20 3 0 13 -9 23 -20z
m945 16 c0 -2 -8 -10 -17 -17 -16 -13 -17 -12 -4 4 13 16 21 21 21 13z m-865
-96 c10 -11 16 -20 13 -20 -3 0 -13 9 -23 20 -10 11 -16 20 -13 20 3 0 13 -9
23 -20z m785 16 c0 -2 -8 -10 -17 -17 -16 -13 -17 -12 -4 4 13 16 21 21 21 13z
m-710 -91 c13 -14 21 -25 18 -25 -2 0 -15 11 -28 25 -13 14 -21 25 -18 25 2 0
15 -11 28 -25z m630 11 c0 -2 -8 -10 -17 -17 -16 -13 -17 -12 -4 4 13 16 21
21 21 13z m-1200 -1200 c0 -2 -8 -10 -17 -17 -16 -13 -17 -12 -4 4 13 16 21
21 21 13z m1775 -16 c10 -11 16 -20 13 -20 -3 0 -13 9 -23 20 -10 11 -16 20
-13 20 3 0 13 -9 23 -20z m-1855 -64 c0 -2 -8 -10 -17 -17 -16 -13 -17 -12 -4
4 13 16 21 21 21 13z m1935 -16 c10 -11 16 -20 13 -20 -3 0 -13 9 -23 20 -10
11 -16 20 -13 20 3 0 13 -9 23 -20z m-2015 -64 c0 -2 -8 -10 -17 -17 -16 -13
-17 -12 -4 4 13 16 21 21 21 13z"/>
</g>
</svg>
